<mxfile host="app.diagrams.net" modified="2022-11-04T03:58:08.525Z" agent="5.0 (Macintosh; Intel Mac OS X 10_15_7) AppleWebKit/537.36 (KHTML, like Gecko) Chrome/106.0.0.0 Safari/537.36" etag="lyYQ8r3kt-bx92R4GFcR" version="20.5.1" type="github">
  <diagram id="z7ZRxm3U07rxTLz8mvXo" name="第 1 页">
    <mxGraphModel dx="1186" dy="614" grid="1" gridSize="10" guides="1" tooltips="1" connect="1" arrows="1" fold="1" page="1" pageScale="1" pageWidth="1169" pageHeight="827" math="0" shadow="0">
      <root>
        <mxCell id="0" />
        <mxCell id="1" parent="0" />
        <mxCell id="eMClKunFbLvMzOcKyZa3-1" value="流程" style="swimlane;childLayout=stackLayout;resizeParent=1;resizeParentMax=0;startSize=20;horizontal=0;horizontalStack=1;" vertex="1" parent="1">
          <mxGeometry x="370" y="50" width="440" height="520" as="geometry">
            <mxRectangle x="430" y="80" width="40" height="60" as="alternateBounds" />
          </mxGeometry>
        </mxCell>
        <mxCell id="eMClKunFbLvMzOcKyZa3-7" value="引擎" style="swimlane;startSize=20;" vertex="1" parent="eMClKunFbLvMzOcKyZa3-1">
          <mxGeometry x="20" width="210" height="520" as="geometry" />
        </mxCell>
        <mxCell id="eMClKunFbLvMzOcKyZa3-15" value="query请求" style="rounded=0;whiteSpace=wrap;html=1;" vertex="1" parent="eMClKunFbLvMzOcKyZa3-7">
          <mxGeometry x="40" y="50" width="130" height="30" as="geometry" />
        </mxCell>
        <mxCell id="eMClKunFbLvMzOcKyZa3-24" value="创意召回" style="whiteSpace=wrap;html=1;rounded=0;" vertex="1" parent="eMClKunFbLvMzOcKyZa3-7">
          <mxGeometry x="45" y="284" width="120" height="40" as="geometry" />
        </mxCell>
        <mxCell id="eMClKunFbLvMzOcKyZa3-41" value="排序" style="whiteSpace=wrap;html=1;rounded=0;" vertex="1" parent="eMClKunFbLvMzOcKyZa3-7">
          <mxGeometry x="45" y="360" width="120" height="40" as="geometry" />
        </mxCell>
        <mxCell id="eMClKunFbLvMzOcKyZa3-42" value="……" style="whiteSpace=wrap;html=1;rounded=0;" vertex="1" parent="eMClKunFbLvMzOcKyZa3-7">
          <mxGeometry x="45" y="430" width="120" height="40" as="geometry" />
        </mxCell>
        <mxCell id="eMClKunFbLvMzOcKyZa3-44" value="" style="endArrow=classic;html=1;rounded=0;entryX=0.5;entryY=0;entryDx=0;entryDy=0;exitX=0.5;exitY=1;exitDx=0;exitDy=0;" edge="1" parent="eMClKunFbLvMzOcKyZa3-7" source="eMClKunFbLvMzOcKyZa3-24" target="eMClKunFbLvMzOcKyZa3-41">
          <mxGeometry width="50" height="50" relative="1" as="geometry">
            <mxPoint x="100" y="324" as="sourcePoint" />
            <mxPoint x="150" y="274" as="targetPoint" />
          </mxGeometry>
        </mxCell>
        <mxCell id="eMClKunFbLvMzOcKyZa3-45" value="" style="endArrow=classic;html=1;rounded=0;entryX=0.5;entryY=0;entryDx=0;entryDy=0;" edge="1" parent="eMClKunFbLvMzOcKyZa3-7">
          <mxGeometry width="50" height="50" relative="1" as="geometry">
            <mxPoint x="102.5" y="399" as="sourcePoint" />
            <mxPoint x="102.5" y="430" as="targetPoint" />
          </mxGeometry>
        </mxCell>
        <mxCell id="eMClKunFbLvMzOcKyZa3-3" value="检索" style="swimlane;startSize=20;" vertex="1" parent="eMClKunFbLvMzOcKyZa3-1">
          <mxGeometry x="230" width="210" height="520" as="geometry" />
        </mxCell>
        <mxCell id="eMClKunFbLvMzOcKyZa3-9" value="不可突破定向过滤" style="rounded=0;whiteSpace=wrap;html=1;" vertex="1" parent="eMClKunFbLvMzOcKyZa3-3">
          <mxGeometry x="10" y="190" width="180" height="40" as="geometry" />
        </mxCell>
        <mxCell id="eMClKunFbLvMzOcKyZa3-10" value="其他支路" style="rounded=0;whiteSpace=wrap;html=1;" vertex="1" parent="eMClKunFbLvMzOcKyZa3-3">
          <mxGeometry x="10" y="100" width="80" height="40" as="geometry" />
        </mxCell>
        <mxCell id="eMClKunFbLvMzOcKyZa3-18" value="泛化v1/v2/xxx" style="rounded=0;whiteSpace=wrap;html=1;" vertex="1" parent="eMClKunFbLvMzOcKyZa3-3">
          <mxGeometry x="100" y="100" width="90" height="40" as="geometry" />
        </mxCell>
        <mxCell id="eMClKunFbLvMzOcKyZa3-30" value="多路归并&amp;amp;过滤" style="rounded=0;whiteSpace=wrap;html=1;" vertex="1" parent="eMClKunFbLvMzOcKyZa3-3">
          <mxGeometry x="10" y="283.5" width="180" height="40" as="geometry" />
        </mxCell>
        <mxCell id="eMClKunFbLvMzOcKyZa3-37" value="" style="endArrow=classic;html=1;rounded=0;exitX=0.5;exitY=1;exitDx=0;exitDy=0;" edge="1" parent="eMClKunFbLvMzOcKyZa3-3" source="eMClKunFbLvMzOcKyZa3-10">
          <mxGeometry width="50" height="50" relative="1" as="geometry">
            <mxPoint x="240" y="250" as="sourcePoint" />
            <mxPoint x="50" y="190" as="targetPoint" />
          </mxGeometry>
        </mxCell>
        <mxCell id="eMClKunFbLvMzOcKyZa3-38" value="" style="endArrow=classic;html=1;rounded=0;exitX=0.5;exitY=1;exitDx=0;exitDy=0;" edge="1" parent="eMClKunFbLvMzOcKyZa3-3">
          <mxGeometry width="50" height="50" relative="1" as="geometry">
            <mxPoint x="144.5" y="140" as="sourcePoint" />
            <mxPoint x="144.5" y="190" as="targetPoint" />
          </mxGeometry>
        </mxCell>
        <mxCell id="eMClKunFbLvMzOcKyZa3-39" value="" style="endArrow=classic;html=1;rounded=0;exitX=0.5;exitY=1;exitDx=0;exitDy=0;" edge="1" parent="eMClKunFbLvMzOcKyZa3-3">
          <mxGeometry width="50" height="50" relative="1" as="geometry">
            <mxPoint x="98" y="230" as="sourcePoint" />
            <mxPoint x="98" y="280" as="targetPoint" />
          </mxGeometry>
        </mxCell>
        <mxCell id="eMClKunFbLvMzOcKyZa3-47" value="" style="endArrow=classic;startArrow=classic;html=1;rounded=0;entryX=0;entryY=0.5;entryDx=0;entryDy=0;" edge="1" parent="eMClKunFbLvMzOcKyZa3-3" target="eMClKunFbLvMzOcKyZa3-14">
          <mxGeometry width="50" height="50" relative="1" as="geometry">
            <mxPoint x="190" y="120" as="sourcePoint" />
            <mxPoint x="240" y="70" as="targetPoint" />
          </mxGeometry>
        </mxCell>
        <mxCell id="eMClKunFbLvMzOcKyZa3-25" value="" style="edgeStyle=orthogonalEdgeStyle;rounded=0;orthogonalLoop=1;jettySize=auto;html=1;" edge="1" parent="eMClKunFbLvMzOcKyZa3-1">
          <mxGeometry relative="1" as="geometry">
            <mxPoint x="240" y="304" as="sourcePoint" />
            <mxPoint x="185" y="304" as="targetPoint" />
            <Array as="points">
              <mxPoint x="240" y="304" />
            </Array>
          </mxGeometry>
        </mxCell>
        <mxCell id="eMClKunFbLvMzOcKyZa3-52" style="edgeStyle=orthogonalEdgeStyle;rounded=0;orthogonalLoop=1;jettySize=auto;html=1;entryX=0.5;entryY=0;entryDx=0;entryDy=0;" edge="1" parent="eMClKunFbLvMzOcKyZa3-1" source="eMClKunFbLvMzOcKyZa3-15" target="eMClKunFbLvMzOcKyZa3-10">
          <mxGeometry relative="1" as="geometry" />
        </mxCell>
        <mxCell id="eMClKunFbLvMzOcKyZa3-53" style="edgeStyle=orthogonalEdgeStyle;rounded=0;orthogonalLoop=1;jettySize=auto;html=1;entryX=0.5;entryY=0;entryDx=0;entryDy=0;" edge="1" parent="eMClKunFbLvMzOcKyZa3-1" source="eMClKunFbLvMzOcKyZa3-15" target="eMClKunFbLvMzOcKyZa3-18">
          <mxGeometry relative="1" as="geometry" />
        </mxCell>
        <mxCell id="eMClKunFbLvMzOcKyZa3-5" value="搜索召回" style="swimlane;startSize=20;" vertex="1" parent="1">
          <mxGeometry x="810" y="50" width="280" height="520" as="geometry" />
        </mxCell>
        <mxCell id="eMClKunFbLvMzOcKyZa3-14" value="提词智能扩量服务" style="rounded=0;whiteSpace=wrap;html=1;" vertex="1" parent="eMClKunFbLvMzOcKyZa3-5">
          <mxGeometry x="70" y="100" width="130" height="40" as="geometry" />
        </mxCell>
        <mxCell id="eMClKunFbLvMzOcKyZa3-33" value="query,ad&lt;br&gt;离线词表" style="whiteSpace=wrap;html=1;rounded=0;fillColor=#FFCCCC;" vertex="1" parent="eMClKunFbLvMzOcKyZa3-5">
          <mxGeometry x="10" y="250" width="90" height="40" as="geometry" />
        </mxCell>
        <mxCell id="eMClKunFbLvMzOcKyZa3-34" value="" style="edgeStyle=orthogonalEdgeStyle;rounded=0;orthogonalLoop=1;jettySize=auto;html=1;" edge="1" parent="eMClKunFbLvMzOcKyZa3-5" source="eMClKunFbLvMzOcKyZa3-14" target="eMClKunFbLvMzOcKyZa3-33">
          <mxGeometry relative="1" as="geometry" />
        </mxCell>
        <mxCell id="eMClKunFbLvMzOcKyZa3-35" value="query,ad实时计算" style="whiteSpace=wrap;html=1;rounded=0;" vertex="1" parent="eMClKunFbLvMzOcKyZa3-5">
          <mxGeometry x="150" y="250" width="120" height="40" as="geometry" />
        </mxCell>
        <mxCell id="eMClKunFbLvMzOcKyZa3-36" value="" style="edgeStyle=orthogonalEdgeStyle;rounded=0;orthogonalLoop=1;jettySize=auto;html=1;" edge="1" parent="eMClKunFbLvMzOcKyZa3-5" source="eMClKunFbLvMzOcKyZa3-14" target="eMClKunFbLvMzOcKyZa3-35">
          <mxGeometry relative="1" as="geometry" />
        </mxCell>
      </root>
    </mxGraphModel>
  </diagram>
</mxfile>
